<?xml version="1.0" standalone="no"?>
<!DOCTYPE svg PUBLIC "-//W3C//DTD SVG 20010904//EN"
 "http://www.w3.org/TR/2001/REC-SVG-20010904/DTD/svg10.dtd">
<svg version="1.0" xmlns="http://www.w3.org/2000/svg"
 width="700.000000pt" height="700.000000pt" viewBox="0 0 700.000000 700.000000"
 preserveAspectRatio="xMidYMid meet">
<metadata>
Created by potrace 1.11, written by Peter Selinger 2001-2013
</metadata>
<g transform="translate(0.000000,700.000000) scale(0.100000,-0.100000)"
fill="#000000" stroke="none">
<path d="M3327 6704 c-371 -59 -691 -311 -834 -654 -28 -66 -69 -195 -71 -225
-1 -5 -4 -32 -7 -60 -13 -113 -10 -221 10 -305 3 -14 8 -35 11 -48 19 -93 117
-346 202 -522 43 -88 49 -107 37 -116 -12 -9 -129 -113 -169 -149 -235 -215
-412 -294 -666 -293 -235 0 -418 72 -600 234 -162 145 -263 233 -310 269 -168
129 -355 210 -557 240 -221 32 -303 12 -354 -87 -19 -37 -19 -93 -17 -2316 l3
-2279 29 -37 c16 -21 48 -47 71 -57 41 -18 140 -19 3398 -19 3205 -1 3357 0
3393 17 20 10 51 35 68 56 l31 39 3 2266 c1 1247 0 2281 -3 2299 -8 42 -47 89
-99 115 -37 19 -51 20 -156 14 -183 -10 -333 -50 -483 -129 -78 -42 -231 -151
-304 -217 -216 -198 -296 -261 -403 -318 -186 -99 -473 -117 -684 -43 -139 49
-240 123 -506 368 -19 18 -38 33 -42 33 -4 0 20 56 53 125 150 316 220 543
222 715 7 534 -377 992 -909 1085 -101 18 -243 18 -357 -1z m333 -740 c138
-65 221 -201 215 -351 -5 -130 -64 -234 -175 -307 -88 -58 -232 -74 -328 -38
-100 38 -167 101 -215 202 -28 58 -31 75 -32 155 0 83 3 97 33 158 51 103 131
173 239 208 16 4 66 7 113 6 71 -2 96 -8 150 -33z"/>
</g>
</svg>
